<?xml version="1.0" encoding="iso-8859-1"?>
<!-- Generator: Adobe Illustrator 18.0.0, SVG Export Plug-In . SVG Version: 6.00 Build 0)  -->
<!DOCTYPE svg PUBLIC "-//W3C//DTD SVG 1.1//EN" "http://www.w3.org/Graphics/SVG/1.1/DTD/svg11.dtd">
<svg xmlns="http://www.w3.org/2000/svg" xmlns:xlink="http://www.w3.org/1999/xlink" version="1.1" id="Capa_1" x="0px" y="0px" viewBox="0 0 463.957 463.957" style="enable-background:new 0 0 463.957 463.957;" xml:space="preserve" width="512px" height="512px">
<g>
	<rect x="42.945" y="175.191" width="116.688" height="25.269" fill="#656565"/>
	<rect x="304.324" y="175.191" width="116.687" height="25.269" fill="#656565"/>
	<path d="M159.633,206.61H15.838v114.223h143.795V206.61z M63.993,244.132H30.634V229.2h33.359V244.132z M103.705,244.132H70.348   V229.2h33.357V244.132z M143.418,244.132h-33.357V229.2h33.357V244.132z" fill="#656565"/>
	<path d="M448.119,206.61H304.324v114.223h143.795V206.61z M353.897,244.132h-33.358V229.2h33.358V244.132z M393.609,244.132   h-33.358V229.2h33.358V244.132z M433.322,244.132h-33.358V229.2h33.358V244.132z" fill="#656565"/>
	<path d="M236.328,172.776c-2.703-1.288-4.416-2.183-5.141-2.681c-0.724-0.499-1.251-1.011-1.582-1.542   c-0.332-0.532-0.498-1.155-0.498-1.872c0-1.151,0.41-2.085,1.229-2.799c0.821-0.716,1.998-1.072,3.531-1.072   c1.292,0,2.604,0.165,3.938,0.497c1.337,0.33,3.022,0.914,5.063,1.753l2.615-6.306c-1.97-0.855-3.857-1.519-5.663-1.988   c-1.806-0.471-3.701-0.707-5.689-0.707c-4.047,0-7.217,0.968-9.511,2.905c-2.294,1.936-3.441,4.595-3.441,7.979   c0,1.797,0.351,3.367,1.049,4.71c0.696,1.343,1.631,2.52,2.798,3.53c1.169,1.012,2.923,2.066,5.259,3.165   c2.494,1.188,4.146,2.051,4.958,2.59c0.811,0.543,1.426,1.104,1.844,1.688c0.419,0.585,0.628,1.252,0.628,2.004   c0,1.344-0.476,2.353-1.425,3.032c-0.952,0.681-2.316,1.021-4.095,1.021c-1.482,0-3.119-0.234-4.906-0.706   c-1.788-0.47-3.971-1.282-6.554-2.434v7.534c3.141,1.534,6.75,2.303,10.831,2.303c4.432,0,7.888-0.995,10.374-2.982   c2.485-1.988,3.728-4.708,3.728-8.163c0-2.493-0.662-4.6-1.988-6.317C242.355,176.2,239.904,174.486,236.328,172.776z" fill="#656565"/>
	<path d="M454.268,325.434H300.041c0-53.245,0-167.431,0-197.983c-22.394-6.981-45.228-10.472-68.058-10.472   c-22.835,0-45.667,3.491-68.067,10.472c0,30.553,0,144.738,0,197.983H9.689H0v21.545h159.633h144.691h159.633v-21.545H454.268z    M204.805,148.172h54.347v58.457h-54.347V148.172z M247.253,325.434h-30.549v-63.65h30.549V325.434z M280.311,259.192   c-32.98-8.912-63.695-8.913-96.666,0l-2.383-8.817c34.594-9.352,66.826-9.352,101.432,0L280.311,259.192z" fill="#656565"/>
</g>
<g>
</g>
<g>
</g>
<g>
</g>
<g>
</g>
<g>
</g>
<g>
</g>
<g>
</g>
<g>
</g>
<g>
</g>
<g>
</g>
<g>
</g>
<g>
</g>
<g>
</g>
<g>
</g>
<g>
</g>
</svg>
